<svg width="117" height="28" viewBox="0 0 117 28" fill="none" xmlns="http://www.w3.org/2000/svg">
<path d="M12.048 8.536C11.856 8.312 11.6 8.096 11.28 7.888C10.96 7.68 10.6 7.496 10.2 7.336C9.8 7.16 9.36 7.024 8.88 6.928C8.416 6.816 7.928 6.76 7.416 6.76C6.104 6.76 5.136 7.008 4.512 7.504C3.888 8 3.576 8.68 3.576 9.544C3.576 10.152 3.736 10.632 4.056 10.984C4.376 11.336 4.864 11.624 5.52 11.848C6.192 12.072 7.04 12.304 8.064 12.544C9.248 12.8 10.272 13.112 11.136 13.48C12 13.848 12.664 14.344 13.128 14.968C13.592 15.576 13.824 16.392 13.824 17.416C13.824 18.232 13.664 18.944 13.344 19.552C13.04 20.144 12.608 20.64 12.048 21.04C11.488 21.424 10.832 21.712 10.08 21.904C9.328 22.08 8.512 22.168 7.632 22.168C6.768 22.168 5.92 22.08 5.088 21.904C4.272 21.712 3.496 21.44 2.76 21.088C2.024 20.736 1.336 20.296 0.696 19.768L1.728 17.944C1.984 18.216 2.312 18.488 2.712 18.76C3.128 19.016 3.592 19.256 4.104 19.48C4.632 19.704 5.2 19.888 5.808 20.032C6.416 20.16 7.04 20.224 7.68 20.224C8.896 20.224 9.84 20.008 10.512 19.576C11.184 19.128 11.52 18.48 11.52 17.632C11.52 16.992 11.328 16.48 10.944 16.096C10.576 15.712 10.024 15.392 9.288 15.136C8.552 14.88 7.656 14.624 6.6 14.368C5.448 14.08 4.48 13.768 3.696 13.432C2.912 13.08 2.32 12.624 1.92 12.064C1.536 11.504 1.344 10.776 1.344 9.88C1.344 8.792 1.608 7.872 2.136 7.12C2.664 6.368 3.392 5.8 4.32 5.416C5.248 5.032 6.296 4.84 7.464 4.84C8.232 4.84 8.944 4.92 9.6 5.08C10.272 5.24 10.896 5.464 11.472 5.752C12.048 6.04 12.576 6.384 13.056 6.784L12.048 8.536ZM30.369 4.96V22H28.209V14.248H18.825V22H16.665V4.96H18.825V12.328H28.209V4.96H30.369ZM41.3661 22.12C40.1661 22.12 39.0781 21.88 38.1021 21.4C37.1261 20.92 36.2781 20.272 35.5581 19.456C34.8541 18.624 34.3101 17.696 33.9261 16.672C33.5421 15.632 33.3501 14.568 33.3501 13.48C33.3501 12.344 33.5501 11.264 33.9501 10.24C34.3661 9.2 34.9341 8.28 35.6541 7.48C36.3901 6.664 37.2461 6.024 38.2221 5.56C39.1981 5.08 40.2621 4.84 41.4141 4.84C42.6141 4.84 43.7021 5.088 44.6781 5.584C45.6541 6.08 46.4941 6.744 47.1981 7.576C47.9021 8.408 48.4461 9.336 48.8301 10.36C49.2141 11.384 49.4061 12.432 49.4061 13.504C49.4061 14.64 49.2061 15.728 48.8061 16.768C48.4061 17.792 47.8381 18.712 47.1021 19.528C46.3821 20.328 45.5341 20.96 44.5581 21.424C43.5821 21.888 42.5181 22.12 41.3661 22.12ZM35.5341 13.48C35.5341 14.344 35.6701 15.184 35.9421 16C36.2301 16.8 36.6301 17.512 37.1421 18.136C37.6541 18.76 38.2701 19.256 38.9901 19.624C39.7101 19.992 40.5101 20.176 41.3901 20.176C42.3021 20.176 43.1181 19.984 43.8381 19.6C44.5581 19.216 45.1661 18.704 45.6621 18.064C46.1741 17.424 46.5581 16.704 46.8141 15.904C47.0861 15.104 47.2221 14.296 47.2221 13.48C47.2221 12.616 47.0781 11.784 46.7901 10.984C46.5181 10.184 46.1181 9.472 45.5901 8.848C45.0781 8.208 44.4621 7.712 43.7421 7.36C43.0381 6.992 42.2541 6.808 41.3901 6.808C40.4781 6.808 39.6621 7 38.9421 7.384C38.2221 7.752 37.6061 8.256 37.0941 8.896C36.5981 9.536 36.2141 10.256 35.9421 11.056C35.6701 11.84 35.5341 12.648 35.5341 13.48ZM52.4072 22V4.96H59.7032C60.4552 4.96 61.1432 5.12 61.7672 5.44C62.3912 5.744 62.9352 6.16 63.3992 6.688C63.8632 7.2 64.2232 7.784 64.4792 8.44C64.7352 9.08 64.8632 9.736 64.8632 10.408C64.8632 11.192 64.7112 11.936 64.4072 12.64C64.1192 13.344 63.7032 13.944 63.1592 14.44C62.6312 14.936 62.0072 15.28 61.2872 15.472L65.4152 22H62.9672L59.0792 15.88H54.5672V22H52.4072ZM54.5672 13.96H59.7272C60.3192 13.96 60.8312 13.8 61.2632 13.48C61.7112 13.144 62.0552 12.704 62.2952 12.16C62.5512 11.616 62.6792 11.032 62.6792 10.408C62.6792 9.768 62.5352 9.184 62.2472 8.656C61.9592 8.112 61.5832 7.68 61.1192 7.36C60.6552 7.04 60.1432 6.88 59.5832 6.88H54.5672V13.96ZM80.328 6.88H74.448V22H72.288V6.88H66.408V4.96H80.328V6.88Z" fill="#7D7D7D"/>
<circle cx="84" cy="19" r="3" fill="#05CC72"/>
<path d="M91.04 22V4.96H93.2V20.08H102.704V22H91.04ZM103.079 4.96L108.239 13.84L113.447 4.96H115.799L109.319 15.784V22H107.159V15.736L100.703 4.96H103.079Z" fill="#7D7D7D"/>
</svg>

