<svg width="135" height="149" viewBox="0 0 135 149" fill="none" xmlns="http://www.w3.org/2000/svg">
<path d="M129.765 33.3657C106.869 31.0967 83.8345 29.9278 60.8692 29.9278C47.255 29.9278 33.6409 30.6154 20.0267 31.9905L6 33.3657" stroke="#FB665C" stroke-width="10.3138" stroke-linecap="round" stroke-linejoin="round"/>
<path d="M43.8171 26.4212L45.3298 17.4139C46.4299 10.8818 47.255 6 58.8752 6H76.8899C88.5101 6 89.4039 11.1569 90.4353 17.4827L91.948 26.4212" stroke="#FB665C" stroke-width="10.3138" stroke-linecap="round" stroke-linejoin="round"/>
<path d="M114.982 55.0936L110.513 124.333C109.756 135.128 109.138 143.517 89.9541 143.517H45.8113C26.6277 143.517 26.0089 135.128 25.2525 124.333L20.7832 55.0936" stroke="#FB665C" stroke-width="10.3138" stroke-linecap="round" stroke-linejoin="round"/>
<path d="M56.3998 105.7H79.2964" stroke="#FB665C" stroke-width="10.3138" stroke-linecap="round" stroke-linejoin="round"/>
<path d="M50.693 78.1963H85.0722" stroke="#FB665C" stroke-width="10.3138" stroke-linecap="round" stroke-linejoin="round"/>
</svg>
